<mxfile host="Electron" modified="2024-01-12T15:44:40.900Z" agent="Mozilla/5.0 (Windows NT 10.0; Win64; x64) AppleWebKit/537.36 (KHTML, like Gecko) draw.io/21.6.5 Chrome/114.0.5735.243 Electron/25.3.1 Safari/537.36" etag="eB8i0ViqY8dhLOJeYLXY" version="21.6.5" type="device">
  <diagram id="C5RBs43oDa-KdzZeNtuy" name="Page-1">
    <mxGraphModel dx="1143" dy="1180" grid="1" gridSize="10" guides="1" tooltips="1" connect="1" arrows="1" fold="1" page="1" pageScale="1" pageWidth="827" pageHeight="1169" math="0" shadow="0">
      <root>
        <mxCell id="WIyWlLk6GJQsqaUBKTNV-0" />
        <mxCell id="WIyWlLk6GJQsqaUBKTNV-1" parent="WIyWlLk6GJQsqaUBKTNV-0" />
        <mxCell id="oFPY3opQBtn_C2PqojjR-2" value="" style="edgeStyle=orthogonalEdgeStyle;rounded=0;orthogonalLoop=1;jettySize=auto;html=1;" edge="1" parent="WIyWlLk6GJQsqaUBKTNV-1" source="WIyWlLk6GJQsqaUBKTNV-3" target="oFPY3opQBtn_C2PqojjR-0">
          <mxGeometry relative="1" as="geometry" />
        </mxCell>
        <mxCell id="WIyWlLk6GJQsqaUBKTNV-3" value="start" style="rounded=1;whiteSpace=wrap;html=1;fontSize=12;glass=0;strokeWidth=1;shadow=0;" parent="WIyWlLk6GJQsqaUBKTNV-1" vertex="1">
          <mxGeometry x="195" y="10" width="120" height="40" as="geometry" />
        </mxCell>
        <mxCell id="WIyWlLk6GJQsqaUBKTNV-11" value="finish" style="rounded=1;whiteSpace=wrap;html=1;fontSize=12;glass=0;strokeWidth=1;shadow=0;" parent="WIyWlLk6GJQsqaUBKTNV-1" vertex="1">
          <mxGeometry x="310" y="900" width="120" height="40" as="geometry" />
        </mxCell>
        <mxCell id="oFPY3opQBtn_C2PqojjR-5" value="" style="edgeStyle=orthogonalEdgeStyle;rounded=0;orthogonalLoop=1;jettySize=auto;html=1;" edge="1" parent="WIyWlLk6GJQsqaUBKTNV-1" source="oFPY3opQBtn_C2PqojjR-0" target="oFPY3opQBtn_C2PqojjR-4">
          <mxGeometry relative="1" as="geometry" />
        </mxCell>
        <mxCell id="oFPY3opQBtn_C2PqojjR-0" value="&lt;div style=&quot;color: rgb(59, 59, 59); background-color: rgb(255, 255, 255); font-family: Consolas, &amp;quot;Courier New&amp;quot;, monospace; font-size: 14px; line-height: 19px;&quot;&gt;smallStringCount &lt;span style=&quot;color: #000000;&quot;&gt;=&lt;/span&gt; &lt;span style=&quot;color: #098658;&quot;&gt;0&lt;/span&gt;&lt;/div&gt;&lt;div style=&quot;color: rgb(59, 59, 59); background-color: rgb(255, 255, 255); font-family: Consolas, &amp;quot;Courier New&amp;quot;, monospace; font-size: 14px; line-height: 19px;&quot;&gt;&lt;div style=&quot;line-height: 19px;&quot;&gt;temp &lt;span style=&quot;color: #000000;&quot;&gt;=&lt;/span&gt; &lt;span style=&quot;color: #098658;&quot;&gt;0&lt;/span&gt;&lt;/div&gt;&lt;/div&gt;" style="whiteSpace=wrap;html=1;shadow=0;strokeWidth=1;spacing=6;spacingTop=-4;" vertex="1" parent="WIyWlLk6GJQsqaUBKTNV-1">
          <mxGeometry x="160" y="120" width="190" height="60" as="geometry" />
        </mxCell>
        <mxCell id="oFPY3opQBtn_C2PqojjR-7" value="" style="edgeStyle=orthogonalEdgeStyle;rounded=0;orthogonalLoop=1;jettySize=auto;html=1;" edge="1" parent="WIyWlLk6GJQsqaUBKTNV-1" source="oFPY3opQBtn_C2PqojjR-4" target="oFPY3opQBtn_C2PqojjR-6">
          <mxGeometry relative="1" as="geometry" />
        </mxCell>
        <mxCell id="oFPY3opQBtn_C2PqojjR-15" style="edgeStyle=orthogonalEdgeStyle;rounded=0;orthogonalLoop=1;jettySize=auto;html=1;entryX=0;entryY=0.5;entryDx=0;entryDy=0;" edge="1" parent="WIyWlLk6GJQsqaUBKTNV-1" source="oFPY3opQBtn_C2PqojjR-4" target="oFPY3opQBtn_C2PqojjR-14">
          <mxGeometry relative="1" as="geometry" />
        </mxCell>
        <mxCell id="oFPY3opQBtn_C2PqojjR-4" value="i = 0; i &amp;lt; array.Length; i++" style="shape=hexagon;perimeter=hexagonPerimeter2;whiteSpace=wrap;html=1;fixedSize=1;" vertex="1" parent="WIyWlLk6GJQsqaUBKTNV-1">
          <mxGeometry x="160" y="240" width="190" height="80" as="geometry" />
        </mxCell>
        <mxCell id="oFPY3opQBtn_C2PqojjR-9" value="" style="edgeStyle=orthogonalEdgeStyle;rounded=0;orthogonalLoop=1;jettySize=auto;html=1;" edge="1" parent="WIyWlLk6GJQsqaUBKTNV-1" source="oFPY3opQBtn_C2PqojjR-6" target="oFPY3opQBtn_C2PqojjR-8">
          <mxGeometry relative="1" as="geometry" />
        </mxCell>
        <mxCell id="oFPY3opQBtn_C2PqojjR-12" style="edgeStyle=orthogonalEdgeStyle;rounded=0;orthogonalLoop=1;jettySize=auto;html=1;" edge="1" parent="WIyWlLk6GJQsqaUBKTNV-1" source="oFPY3opQBtn_C2PqojjR-6">
          <mxGeometry relative="1" as="geometry">
            <mxPoint x="40" y="435" as="targetPoint" />
          </mxGeometry>
        </mxCell>
        <mxCell id="oFPY3opQBtn_C2PqojjR-6" value="array[i].Length &amp;lt;= 3" style="rhombus;whiteSpace=wrap;html=1;" vertex="1" parent="WIyWlLk6GJQsqaUBKTNV-1">
          <mxGeometry x="182.5" y="370" width="145" height="130" as="geometry" />
        </mxCell>
        <mxCell id="oFPY3opQBtn_C2PqojjR-10" style="edgeStyle=orthogonalEdgeStyle;rounded=0;orthogonalLoop=1;jettySize=auto;html=1;entryX=0;entryY=0.5;entryDx=0;entryDy=0;" edge="1" parent="WIyWlLk6GJQsqaUBKTNV-1" source="oFPY3opQBtn_C2PqojjR-8" target="oFPY3opQBtn_C2PqojjR-4">
          <mxGeometry relative="1" as="geometry">
            <Array as="points">
              <mxPoint x="40" y="600" />
              <mxPoint x="40" y="280" />
            </Array>
          </mxGeometry>
        </mxCell>
        <mxCell id="oFPY3opQBtn_C2PqojjR-8" value="smallStringCount += 1&amp;nbsp;" style="whiteSpace=wrap;html=1;" vertex="1" parent="WIyWlLk6GJQsqaUBKTNV-1">
          <mxGeometry x="182.5" y="570" width="145" height="60" as="geometry" />
        </mxCell>
        <mxCell id="oFPY3opQBtn_C2PqojjR-11" value="yes" style="text;html=1;strokeColor=none;fillColor=none;align=center;verticalAlign=middle;whiteSpace=wrap;rounded=0;" vertex="1" parent="WIyWlLk6GJQsqaUBKTNV-1">
          <mxGeometry x="255" y="520" width="60" height="30" as="geometry" />
        </mxCell>
        <mxCell id="oFPY3opQBtn_C2PqojjR-13" value="no" style="text;html=1;strokeColor=none;fillColor=none;align=center;verticalAlign=middle;whiteSpace=wrap;rounded=0;" vertex="1" parent="WIyWlLk6GJQsqaUBKTNV-1">
          <mxGeometry x="84" y="410" width="60" height="30" as="geometry" />
        </mxCell>
        <mxCell id="oFPY3opQBtn_C2PqojjR-20" value="" style="edgeStyle=orthogonalEdgeStyle;rounded=0;orthogonalLoop=1;jettySize=auto;html=1;" edge="1" parent="WIyWlLk6GJQsqaUBKTNV-1" source="oFPY3opQBtn_C2PqojjR-14" target="oFPY3opQBtn_C2PqojjR-19">
          <mxGeometry relative="1" as="geometry" />
        </mxCell>
        <mxCell id="oFPY3opQBtn_C2PqojjR-14" value="&lt;div style=&quot;color: rgb(59, 59, 59); background-color: rgb(255, 255, 255); font-family: Consolas, &amp;quot;Courier New&amp;quot;, monospace; font-size: 14px; line-height: 19px;&quot;&gt;&lt;div style=&quot;line-height: 19px;&quot;&gt;[] smallArray &lt;span style=&quot;color: #000000;&quot;&gt;=&lt;/span&gt; &lt;span style=&quot;color: #0000ff;&quot;&gt;new&amp;nbsp;&lt;/span&gt;[&lt;span style=&quot;color: #001080;&quot;&gt;smallStringCount&lt;/span&gt;]&lt;/div&gt;&lt;/div&gt;" style="whiteSpace=wrap;html=1;shadow=0;strokeWidth=1;spacing=6;spacingTop=-4;" vertex="1" parent="WIyWlLk6GJQsqaUBKTNV-1">
          <mxGeometry x="500" y="250" width="190" height="60" as="geometry" />
        </mxCell>
        <mxCell id="oFPY3opQBtn_C2PqojjR-22" value="" style="edgeStyle=orthogonalEdgeStyle;rounded=0;orthogonalLoop=1;jettySize=auto;html=1;" edge="1" parent="WIyWlLk6GJQsqaUBKTNV-1" source="oFPY3opQBtn_C2PqojjR-19" target="oFPY3opQBtn_C2PqojjR-21">
          <mxGeometry relative="1" as="geometry" />
        </mxCell>
        <mxCell id="oFPY3opQBtn_C2PqojjR-31" style="edgeStyle=orthogonalEdgeStyle;rounded=0;orthogonalLoop=1;jettySize=auto;html=1;entryX=0.5;entryY=0;entryDx=0;entryDy=0;" edge="1" parent="WIyWlLk6GJQsqaUBKTNV-1" source="oFPY3opQBtn_C2PqojjR-19" target="oFPY3opQBtn_C2PqojjR-30">
          <mxGeometry relative="1" as="geometry" />
        </mxCell>
        <mxCell id="oFPY3opQBtn_C2PqojjR-19" value="i = 0; i &amp;lt; array.Length; i++" style="shape=hexagon;perimeter=hexagonPerimeter2;whiteSpace=wrap;html=1;fixedSize=1;" vertex="1" parent="WIyWlLk6GJQsqaUBKTNV-1">
          <mxGeometry x="500" y="380" width="190" height="80" as="geometry" />
        </mxCell>
        <mxCell id="oFPY3opQBtn_C2PqojjR-24" value="" style="edgeStyle=orthogonalEdgeStyle;rounded=0;orthogonalLoop=1;jettySize=auto;html=1;" edge="1" parent="WIyWlLk6GJQsqaUBKTNV-1" source="oFPY3opQBtn_C2PqojjR-21" target="oFPY3opQBtn_C2PqojjR-23">
          <mxGeometry relative="1" as="geometry" />
        </mxCell>
        <mxCell id="oFPY3opQBtn_C2PqojjR-27" style="edgeStyle=orthogonalEdgeStyle;rounded=0;orthogonalLoop=1;jettySize=auto;html=1;" edge="1" parent="WIyWlLk6GJQsqaUBKTNV-1" source="oFPY3opQBtn_C2PqojjR-21">
          <mxGeometry relative="1" as="geometry">
            <mxPoint x="780" y="600" as="targetPoint" />
          </mxGeometry>
        </mxCell>
        <mxCell id="oFPY3opQBtn_C2PqojjR-21" value="array[i].Length &amp;lt;= 3" style="rhombus;whiteSpace=wrap;html=1;" vertex="1" parent="WIyWlLk6GJQsqaUBKTNV-1">
          <mxGeometry x="522.5" y="535" width="145" height="130" as="geometry" />
        </mxCell>
        <mxCell id="oFPY3opQBtn_C2PqojjR-25" style="edgeStyle=orthogonalEdgeStyle;rounded=0;orthogonalLoop=1;jettySize=auto;html=1;entryX=1;entryY=0.5;entryDx=0;entryDy=0;" edge="1" parent="WIyWlLk6GJQsqaUBKTNV-1" source="oFPY3opQBtn_C2PqojjR-23" target="oFPY3opQBtn_C2PqojjR-19">
          <mxGeometry relative="1" as="geometry">
            <Array as="points">
              <mxPoint x="780" y="780" />
              <mxPoint x="780" y="420" />
            </Array>
          </mxGeometry>
        </mxCell>
        <mxCell id="oFPY3opQBtn_C2PqojjR-23" value="&lt;div style=&quot;color: rgb(59, 59, 59); background-color: rgb(255, 255, 255); font-family: Consolas, &amp;quot;Courier New&amp;quot;, monospace; font-size: 14px; line-height: 19px;&quot;&gt;&lt;div&gt;smallArray[&lt;span style=&quot;color: #001080;&quot;&gt;temp&lt;/span&gt;] &lt;span style=&quot;color: #000000;&quot;&gt;=&lt;/span&gt; &lt;span style=&quot;color: #001080;&quot;&gt;array&lt;/span&gt;[&lt;span style=&quot;color: #001080;&quot;&gt;i&lt;/span&gt;]&lt;/div&gt;&lt;div&gt;&lt;span style=&quot;color: rgb(0, 16, 128);&quot;&gt;temp&amp;nbsp;&lt;/span&gt;&lt;span style=&quot;color: rgb(0, 0, 0);&quot;&gt;+= 1&lt;/span&gt;;&lt;/div&gt;&lt;/div&gt;" style="whiteSpace=wrap;html=1;" vertex="1" parent="WIyWlLk6GJQsqaUBKTNV-1">
          <mxGeometry x="466.25" y="750" width="257.5" height="60" as="geometry" />
        </mxCell>
        <mxCell id="oFPY3opQBtn_C2PqojjR-26" value="yes" style="text;html=1;strokeColor=none;fillColor=none;align=center;verticalAlign=middle;whiteSpace=wrap;rounded=0;" vertex="1" parent="WIyWlLk6GJQsqaUBKTNV-1">
          <mxGeometry x="540" y="690" width="60" height="30" as="geometry" />
        </mxCell>
        <mxCell id="oFPY3opQBtn_C2PqojjR-28" value="no" style="text;html=1;strokeColor=none;fillColor=none;align=center;verticalAlign=middle;whiteSpace=wrap;rounded=0;" vertex="1" parent="WIyWlLk6GJQsqaUBKTNV-1">
          <mxGeometry x="680" y="560" width="60" height="30" as="geometry" />
        </mxCell>
        <mxCell id="oFPY3opQBtn_C2PqojjR-32" value="" style="edgeStyle=orthogonalEdgeStyle;rounded=0;orthogonalLoop=1;jettySize=auto;html=1;" edge="1" parent="WIyWlLk6GJQsqaUBKTNV-1" source="oFPY3opQBtn_C2PqojjR-30" target="WIyWlLk6GJQsqaUBKTNV-11">
          <mxGeometry relative="1" as="geometry" />
        </mxCell>
        <mxCell id="oFPY3opQBtn_C2PqojjR-30" value="return&amp;nbsp;smallArray" style="shape=document;whiteSpace=wrap;html=1;boundedLbl=1;" vertex="1" parent="WIyWlLk6GJQsqaUBKTNV-1">
          <mxGeometry x="310" y="740" width="120" height="80" as="geometry" />
        </mxCell>
      </root>
    </mxGraphModel>
  </diagram>
</mxfile>
